<svg xmlns="http://www.w3.org/2000/svg" width="176" height="32" viewBox="0 0 176 32" fill="none">
  <path fill-rule="evenodd" clip-rule="evenodd" d="M16 0C7.16344 0 0 7.16344 0 16C0 24.8366 7.16344 32 16 32C24.8366 32 32 24.8366 32 16C32 7.16344 24.8366 0 16 0ZM17.6676 16.7028V25.4077H14.066V16.7031H12.2666V13.7034H14.066V11.9024C14.066 9.4552 15.082 8 17.9687 8H20.372V11.0001H18.8698C17.7461 11.0001 17.6717 11.4193 17.6717 12.2017L17.6676 13.7031H20.389L20.0706 16.7028H17.6676Z" fill="#646464"/>
  <path fill-rule="evenodd" clip-rule="evenodd" d="M64 0C55.1634 0 48 7.16344 48 16C48 24.8366 55.1634 32 64 32C72.8366 32 80 24.8366 80 16C80 7.16344 72.8366 0 64 0ZM60.4823 7.51835C61.3925 7.47693 61.6834 7.4668 64.0009 7.4668H63.9983C66.3165 7.4668 66.6063 7.47693 67.5165 7.51835C68.425 7.55995 69.0454 7.70378 69.5894 7.9148C70.1512 8.13258 70.6259 8.42414 71.1005 8.89881C71.5752 9.37313 71.8668 9.84922 72.0854 10.4105C72.2952 10.9531 72.4392 11.5732 72.4819 12.4816C72.5228 13.3918 72.5335 13.6827 72.5335 16.0002C72.5335 18.3178 72.5228 18.6079 72.4819 19.5181C72.4392 20.4262 72.2952 21.0465 72.0854 21.5893C71.8668 22.1503 71.5752 22.6264 71.1005 23.1007C70.6264 23.5754 70.151 23.8677 69.59 24.0856C69.047 24.2967 68.4262 24.4405 67.5178 24.4821C66.6075 24.5235 66.3176 24.5336 63.9999 24.5336C61.6825 24.5336 61.3918 24.5235 60.4816 24.4821C59.5733 24.4405 58.953 24.2967 58.4101 24.0856C57.8492 23.8677 57.3731 23.5754 56.899 23.1007C56.4245 22.6264 56.1329 22.1503 55.9148 21.5891C55.7039 21.0465 55.5601 20.4264 55.5183 19.5179C55.4771 18.6077 55.4668 18.3178 55.4668 16.0002C55.4668 13.6827 55.4775 13.3917 55.5182 12.4814C55.5591 11.5733 55.7031 10.9531 55.9146 10.4103C56.1333 9.84922 56.4248 9.37313 56.8995 8.89881C57.3738 8.42432 57.8499 8.13276 58.4112 7.9148C58.9538 7.70378 59.5739 7.55995 60.4823 7.51835Z" fill="#646464"/>
  <path fill-rule="evenodd" clip-rule="evenodd" d="M63.2355 9.00409C63.3841 9.00385 63.544 9.00393 63.7166 9.004L64.001 9.00409C66.2794 9.00409 66.5495 9.01226 67.4492 9.05315C68.2812 9.0912 68.7328 9.23022 69.0336 9.34702C69.4318 9.50169 69.7157 9.68658 70.0142 9.98525C70.3129 10.2839 70.4978 10.5684 70.6528 10.9666C70.7696 11.267 70.9088 11.7186 70.9467 12.5506C70.9876 13.4502 70.9964 13.7204 70.9964 15.9978C70.9964 18.2751 70.9876 18.5453 70.9467 19.4449C70.9086 20.2769 70.7696 20.7285 70.6528 21.0289C70.4981 21.4271 70.3129 21.7107 70.0142 22.0092C69.7155 22.3079 69.432 22.4928 69.0336 22.6474C68.7331 22.7648 68.2812 22.9034 67.4492 22.9415C66.5496 22.9824 66.2794 22.9913 64.001 22.9913C61.7224 22.9913 61.4524 22.9824 60.5528 22.9415C59.7208 22.9031 59.2692 22.7641 58.9682 22.6472C58.57 22.4926 58.2856 22.3077 57.9869 22.009C57.6882 21.7104 57.5033 21.4266 57.3483 21.0282C57.2315 20.7278 57.0923 20.2762 57.0544 19.4442C57.0135 18.5446 57.0054 18.2744 57.0054 15.9956C57.0054 13.7168 57.0135 13.448 57.0544 12.5485C57.0925 11.7165 57.2315 11.2649 57.3483 10.9641C57.503 10.5659 57.6882 10.2814 57.9869 9.98276C58.2856 9.68409 58.57 9.4992 58.9682 9.34418C59.269 9.22684 59.7208 9.08818 60.5528 9.04995C61.34 9.0144 61.6451 9.00373 63.2355 9.00195V9.00409ZM68.5559 10.4209C67.9906 10.4209 67.5319 10.8791 67.5319 11.4446C67.5319 12.0099 67.9906 12.4686 68.5559 12.4686C69.1212 12.4686 69.5799 12.0099 69.5799 11.4446C69.5799 10.8792 69.1212 10.4206 68.5559 10.4206V10.4209ZM59.6188 15.9988C59.6188 13.5787 61.5809 11.6166 64.0009 11.6165C66.421 11.6165 68.3826 13.5787 68.3826 15.9988C68.3826 18.4189 66.4212 20.3802 64.0011 20.3802C61.581 20.3802 59.6188 18.4189 59.6188 15.9988Z" fill="#646464"/>
  <path fill-rule="evenodd" clip-rule="evenodd" d="M64.0007 13.155C65.5716 13.155 66.8452 14.4285 66.8452 15.9995C66.8452 17.5704 65.5716 18.844 64.0007 18.844C62.4297 18.844 61.1562 17.5704 61.1562 15.9995C61.1562 14.4285 62.4297 13.155 64.0007 13.155V13.155Z" fill="#646464"/>
  <path fill-rule="evenodd" clip-rule="evenodd" d="M112 0C103.163 0 96 7.16344 96 16C96 24.8366 103.163 32 112 32C120.837 32 128 24.8366 128 16C128 7.16344 120.837 0 112 0ZM111.554 13.5582L111.521 13.0046C111.42 11.5697 112.304 10.259 113.703 9.75059C114.218 9.56981 115.091 9.54721 115.662 9.70539C115.886 9.77318 116.311 9.99916 116.613 10.2025L117.161 10.5754L117.766 10.3833C118.102 10.2816 118.549 10.1121 118.751 9.99916C118.941 9.89747 119.109 9.84097 119.109 9.87487C119.109 10.0669 118.695 10.7223 118.348 11.0838C117.878 11.5923 118.012 11.6375 118.963 11.2985C119.534 11.1064 119.545 11.1064 119.433 11.3211C119.366 11.4341 119.019 11.8295 118.65 12.1911C118.023 12.8125 117.99 12.8803 117.99 13.4001C117.99 14.2023 117.609 15.8745 117.229 16.7897C116.523 18.5071 115.013 20.281 113.502 21.1736C111.375 22.4277 108.544 22.7441 106.16 22.0097C105.365 21.7611 104 21.1284 104 21.0154C104 20.9815 104.414 20.9363 104.918 20.925C105.97 20.9024 107.022 20.6086 107.917 20.0889L108.521 19.7273L107.828 19.4901C106.843 19.1511 105.959 18.3715 105.735 17.6371C105.668 17.3998 105.69 17.3885 106.317 17.3885L106.966 17.3772L106.417 17.1173C105.768 16.7897 105.175 16.236 104.884 15.6711C104.672 15.2643 104.403 14.2362 104.481 14.1571C104.504 14.1232 104.739 14.191 105.007 14.2814C105.779 14.5638 105.88 14.496 105.433 14.0215C104.593 13.1628 104.336 11.886 104.739 10.6771L104.929 10.1347L105.668 10.8692C107.178 12.3493 108.958 13.2306 110.995 13.4905L111.554 13.5582Z" fill="#646464"/>
  <path fill-rule="evenodd" clip-rule="evenodd" d="M160 0C151.163 0 144 7.16344 144 16C144 24.8366 151.163 32 160 32C168.837 32 176 24.8366 176 16C176 7.16344 168.837 0 160 0ZM166.668 10.5003C167.402 10.7018 167.981 11.2956 168.177 12.0496C168.533 13.4161 168.533 16.2674 168.533 16.2674C168.533 16.2674 168.533 19.1187 168.177 20.4853C167.981 21.2393 167.402 21.8331 166.668 22.0347C165.337 22.4008 160 22.4008 160 22.4008C160 22.4008 154.663 22.4008 153.332 22.0347C152.598 21.8331 152.02 21.2393 151.823 20.4853C151.467 19.1187 151.467 16.2674 151.467 16.2674C151.467 16.2674 151.467 13.4161 151.823 12.0496C152.02 11.2956 152.598 10.7018 153.332 10.5003C154.663 10.1341 160 10.1341 160 10.1341C160 10.1341 165.337 10.1341 166.668 10.5003Z" fill="#646464"/>
  <path fill-rule="evenodd" clip-rule="evenodd" d="M158.4 19.1993V13.866L162.667 16.5327L158.4 19.1993Z" fill="#646464"/>
</svg>